<svg width="82" height="82" viewBox="0 0 82 82" fill="none" xmlns="http://www.w3.org/2000/svg">
<g clip-path="url(#clip0_2248_25606)">
<path d="M41 82C63.6437 82 82 63.6437 82 41C82 18.3563 63.6437 0 41 0C18.3563 0 0 18.3563 0 41C0 63.6437 18.3563 82 41 82Z" fill="#5454FB"/>
<path fill-rule="evenodd" clip-rule="evenodd" d="M43.308 21.5968C43.308 20.3981 42.3352 19.4272 41.1365 19.4272C39.9378 19.4272 38.965 20.3981 38.965 21.5968V25.94H28.1117C23.3169 25.94 19.4277 29.8273 19.4277 34.6222V41.135C19.4277 45.932 23.3169 49.8193 28.1117 49.8193H54.1614C58.9562 49.8193 62.8453 45.9321 62.8453 41.135V34.6222C62.8453 29.8273 58.9562 25.94 54.1614 25.94H43.308V21.5968ZM58.5023 34.6223C58.5023 32.2248 56.5588 30.2812 54.1614 30.2812H28.1117C25.7143 30.2812 23.7707 32.2248 23.7707 34.6223V41.135C23.7707 43.5346 25.7143 45.4782 28.1117 45.4782H54.1614C56.5588 45.4782 58.5023 43.5345 58.5023 41.135V34.6223ZM33.5394 41.135C35.3364 41.135 36.7956 39.6778 36.7956 37.8787C36.7956 36.0816 35.3364 34.6223 33.5394 34.6223C31.7403 34.6223 30.2832 36.0816 30.2832 37.8787C30.2832 39.6778 31.7403 41.135 33.5394 41.135ZM48.7337 41.135C50.5327 41.135 51.9899 39.6778 51.9899 37.8787C51.9899 36.0816 50.5327 34.6223 48.7337 34.6223C46.9367 34.6223 45.4775 36.0816 45.4775 37.8787C45.4775 39.6778 46.9367 41.135 48.7337 41.135ZM30.2832 60.6732C30.2832 59.4745 31.2539 58.5037 32.4526 58.5037H49.8205C51.0192 58.5037 51.99 59.4745 51.99 60.6732C51.99 61.872 51.0192 62.8448 49.8205 62.8448H32.4526C31.2539 62.8448 30.2832 61.872 30.2832 60.6732ZM25.9402 51.991C24.7415 51.991 23.7707 52.9618 23.7707 54.1606C23.7707 55.3593 24.7415 56.3322 25.9402 56.3322H56.333C57.5317 56.3322 58.5024 55.3593 58.5024 54.1606C58.5024 52.9618 57.5317 51.991 56.333 51.991H25.9402Z" fill="white"/>
</g>
<defs>
<clipPath id="clip0_2248_25606">
<rect width="82" height="82" fill="white"/>
</clipPath>
</defs>
</svg>
