<svg width="290" height="242" viewBox="0 0 290 242" fill="none" xmlns="http://www.w3.org/2000/svg">
<g opacity="0.4" filter="url(#filter0_f_1305_22151)">
<path d="M121.935 128.506C121.935 113.517 134.085 101.367 149.073 101.367H222.607C237.595 101.367 249.745 113.517 249.745 128.506V167.777C249.745 179.451 240.282 188.915 228.608 188.915C225.677 188.915 225.272 202 222.463 202C219.541 202 214.22 188.915 211.402 188.915C190.131 188.915 171.401 188.915 149.077 188.915C134.088 188.915 121.935 176.765 121.935 161.777V128.506Z" fill="url(#paint0_linear_1305_22151)"/>
<path d="M122.384 128.506C122.384 113.766 134.333 101.816 149.073 101.816H222.607C237.347 101.816 249.296 113.766 249.296 128.506V167.777C249.296 179.203 240.034 188.466 228.608 188.466C228.055 188.466 227.613 188.779 227.272 189.191C226.931 189.601 226.643 190.162 226.389 190.792C225.881 192.053 225.461 193.722 225.054 195.349L225.033 195.433C224.628 197.049 224.235 198.618 223.777 199.792C223.544 200.39 223.306 200.852 223.062 201.157C222.818 201.464 222.62 201.551 222.463 201.551C222.257 201.551 221.957 201.429 221.551 201.092C221.157 200.765 220.722 200.282 220.253 199.68C219.316 198.475 218.302 196.861 217.274 195.219L217.212 195.119C216.212 193.522 215.202 191.908 214.265 190.686C213.787 190.063 213.314 189.523 212.858 189.135C212.414 188.758 211.919 188.466 211.402 188.466H211.278H211.153H211.029H210.904H210.78H210.655H210.531H210.407H210.283H210.159H210.035H209.911H209.787H209.663H209.539H209.415H209.292H209.168H209.044H208.921H208.797H208.674H208.55H208.427H208.304H208.18H208.057H207.934H207.811H207.688H207.565H207.442H207.319H207.196H207.074H206.951H206.828H206.705H206.583H206.46H206.338H206.215H206.093H205.971H205.848H205.726H205.604H205.482H205.359H205.237H205.115H204.993H204.871H204.749H204.627H204.506H204.384H204.262H204.14H204.019H203.897H203.776H203.654H203.533H203.411H203.29H203.168H203.047H202.926H202.804H202.683H202.562H202.441H202.32H202.199H202.078H201.957H201.836H201.715H201.594H201.473H201.352H201.231H201.111H200.99H200.869H200.749H200.628H200.508H200.387H200.267H200.146H200.026H199.905H199.785H199.665H199.544H199.424H199.304H199.184H199.063H198.943H198.823H198.703H198.583H198.463H198.343H198.223H198.103H197.983H197.863H197.743H197.624H197.504H197.384H197.264H197.144H197.025H196.905H196.785H196.666H196.546H196.427H196.307H196.188H196.068H195.949H195.829H195.71H195.59H195.471H195.352H195.232H195.113H194.994H194.874H194.755H194.636H194.517H194.398H194.278H194.159H194.04H193.921H193.802H193.683H193.564H193.445H193.326H193.207H193.088H192.969H192.85H192.731H192.612H192.493H192.374H192.255H192.136H192.017H191.899H191.78H191.661H191.542H191.423H191.305H191.186H191.067H190.948H190.83H190.711H190.592H190.474H190.355H190.236H190.118H189.999H189.88H189.762H189.643H189.525H189.406H189.287H189.169H189.05H188.932H188.813H188.694H188.576H188.457H188.339H188.22H188.102H187.983H187.865H187.746H187.628H187.509H187.391H187.272H187.154H187.035H186.917H186.798H186.68H186.561H186.443H186.324H186.206H186.088H185.969H185.851H185.732H185.614H185.495H185.377H185.258H185.14H185.021H184.903H184.784H184.666H184.547H184.429H184.31H184.192H184.073H183.955H183.836H183.718H183.599H183.481H183.362H183.244H183.125H183.007H182.888H182.77H182.651H182.532H182.414H182.295H182.177H182.058H181.939H181.821H181.702H181.584H181.465H181.346H181.228H181.109H180.99H180.871H180.753H180.634H180.515H180.397H180.278H180.159H180.04H179.921H179.803H179.684H179.565H179.446H179.327H179.208H179.089H178.97H178.852H178.733H178.614H178.495H178.376H178.257H178.138H178.019H177.899H177.78H177.661H177.542H177.423H177.304H177.185H177.065H176.946H176.827H176.708H176.588H176.469H176.35H176.23H176.111H175.992H175.872H175.753H175.633H175.514H175.394H175.275H175.155H175.036H174.916H174.796H174.677H174.557H174.437H174.317H174.198H174.078H173.958H173.838H173.718H173.598H173.478H173.358H173.239H173.118H172.998H172.878H172.758H172.638H172.518H172.398H172.277H172.157H172.037H171.917H171.796H171.676H171.555H171.435H171.314H171.194H171.073H170.953H170.832H170.712H170.591H170.47H170.349H170.229H170.108H169.987H169.866H169.745H169.624H169.503H169.382H169.261H169.14H169.018H168.897H168.776H168.655H168.533H168.412H168.291H168.169H168.048H167.926H167.805H167.683H167.561H167.44H167.318H167.196H167.074H166.952H166.83H166.709H166.587H166.465H166.342H166.22H166.098H165.976H165.854H165.731H165.609H165.487H165.364H165.242H165.119H164.996H164.874H164.751H164.628H164.506H164.383H164.26H164.137H164.014H163.891H163.768H163.645H163.522H163.398H163.275H163.152H163.028H162.905H162.781H162.658H162.534H162.411H162.287H162.163H162.039H161.915H161.791H161.668H161.543H161.419H161.295H161.171H161.047H160.922H160.798H160.674H160.549H160.425H160.3H160.175H160.051H159.926H159.801H159.676H159.551H159.426H159.301H159.176H159.051H158.926H158.8H158.675H158.549H158.424H158.298H158.173H158.047H157.921H157.796H157.67H157.544H157.418H157.292H157.165H157.039H156.913H156.787H156.66H156.534H156.407H156.281H156.154H156.027H155.901H155.774H155.647H155.52H155.393H155.266H155.138H155.011H154.884H154.756H154.629H154.501H154.374H154.246H154.118H153.99H153.862H153.734H153.606H153.478H153.35H153.222H153.093H152.965H152.836H152.708H152.579H152.451H152.322H152.193H152.064H151.935H151.806H151.677H151.547H151.418H151.289H151.159H151.03H150.9H150.77H150.64H150.511H150.381H150.251H150.12H149.99H149.86H149.73H149.599H149.469H149.338H149.207H149.077C134.336 188.466 122.384 176.517 122.384 161.777V128.506Z" stroke="#979797" stroke-width="0.898396"/>
</g>
<path d="M116.793 108.07C116.793 91.3863 130.317 77.8618 147 77.8618H223.945C240.628 77.8618 254.153 91.3863 254.153 108.07V152.353C254.153 164.9 243.982 175.07 231.435 175.07C228.286 175.07 227.85 189.599 224.832 189.599C221.692 189.599 215.973 175.07 212.945 175.07C190.415 175.07 170.538 175.07 147.002 175.07C130.319 175.07 116.793 161.546 116.793 144.863V108.07Z" fill="url(#paint1_linear_1305_22151)"/>
<g filter="url(#filter1_f_1305_22151)">
<rect x="116.793" y="77.8618" width="83.7382" height="64.64" rx="20" fill="#5454FB" fill-opacity="0.4"/>
</g>
<g filter="url(#filter2_bi_1305_22151)">
<path d="M190.982 42C190.982 18.8041 172.178 0 148.982 0H42C18.804 0 0 18.804 0 42V103.571C0 121.015 14.1413 135.156 31.5855 135.156C35.9642 135.156 36.5701 155.356 40.7673 155.356C45.133 155.356 53.0835 135.156 57.2945 135.156C88.6194 135.156 116.256 135.156 148.979 135.156C172.175 135.156 190.982 116.352 190.982 93.1564V42Z" fill="url(#paint2_linear_1305_22151)" fill-opacity="0.3"/>
</g>
<circle cx="68.68" cy="69.4146" r="8.44727" fill="white"/>
<circle cx="95.8582" cy="69.4146" r="8.44727" fill="white"/>
<circle cx="123.036" cy="69.4146" r="8.44727" fill="white"/>
<defs>
<filter id="filter0_f_1305_22151" x="81.9346" y="61.3672" width="207.811" height="180.633" filterUnits="userSpaceOnUse" color-interpolation-filters="sRGB">
<feFlood flood-opacity="0" result="BackgroundImageFix"/>
<feBlend mode="normal" in="SourceGraphic" in2="BackgroundImageFix" result="shape"/>
<feGaussianBlur stdDeviation="20" result="effect1_foregroundBlur_1305_22151"/>
</filter>
<filter id="filter1_f_1305_22151" x="86.7927" y="47.8618" width="143.738" height="124.64" filterUnits="userSpaceOnUse" color-interpolation-filters="sRGB">
<feFlood flood-opacity="0" result="BackgroundImageFix"/>
<feBlend mode="normal" in="SourceGraphic" in2="BackgroundImageFix" result="shape"/>
<feGaussianBlur stdDeviation="15" result="effect1_foregroundBlur_1305_22151"/>
</filter>
<filter id="filter2_bi_1305_22151" x="-25" y="-25" width="240.982" height="205.356" filterUnits="userSpaceOnUse" color-interpolation-filters="sRGB">
<feFlood flood-opacity="0" result="BackgroundImageFix"/>
<feGaussianBlur in="BackgroundImageFix" stdDeviation="12.5"/>
<feComposite in2="SourceAlpha" operator="in" result="effect1_backgroundBlur_1305_22151"/>
<feBlend mode="normal" in="SourceGraphic" in2="effect1_backgroundBlur_1305_22151" result="shape"/>
<feColorMatrix in="SourceAlpha" type="matrix" values="0 0 0 0 0 0 0 0 0 0 0 0 0 0 0 0 0 0 127 0" result="hardAlpha"/>
<feOffset dy="4"/>
<feGaussianBlur stdDeviation="20"/>
<feComposite in2="hardAlpha" operator="arithmetic" k2="-1" k3="1"/>
<feColorMatrix type="matrix" values="0 0 0 0 1 0 0 0 0 1 0 0 0 0 1 0 0 0 0.35 0"/>
<feBlend mode="normal" in2="shape" result="effect2_innerShadow_1305_22151"/>
</filter>
<linearGradient id="paint0_linear_1305_22151" x1="121.935" y1="93.0979" x2="196.986" y2="268.564" gradientUnits="userSpaceOnUse">
<stop stop-color="#5454FB"/>
<stop offset="1" stop-color="#BBBBFF"/>
</linearGradient>
<linearGradient id="paint1_linear_1305_22151" x1="139.564" y1="67.9455" x2="231.015" y2="195.389" gradientUnits="userSpaceOnUse">
<stop offset="0.283719" stop-color="#5454FB"/>
<stop offset="1" stop-color="#BBBBFF"/>
</linearGradient>
<linearGradient id="paint2_linear_1305_22151" x1="4.04" y1="-1.32324e-06" x2="148.745" y2="134.422" gradientUnits="userSpaceOnUse">
<stop stop-color="#5454FB" stop-opacity="0.1"/>
<stop offset="0.515821" stop-color="#5454FB" stop-opacity="0.8"/>
<stop offset="0.779545" stop-color="#5454FB"/>
<stop offset="0.988497" stop-color="#5454FB"/>
</linearGradient>
</defs>
</svg>
