<svg width="177" height="29" viewBox="0 0 177 29" fill="none" xmlns="http://www.w3.org/2000/svg">
<path d="M17.2682 15.6891H4.84406C5.36043 17.6997 6.84907 19.2228 9.67377 19.2228C11.5778 19.1804 13.4311 18.5995 15.0203 17.5472L16.7215 20.5631C14.6047 22.0548 12.0792 22.8528 9.49187 22.8475C3.29449 22.8475 0.500031 18.6136 0.500031 14.1637C0.500031 9.19831 3.96298 5.45142 9.12716 5.45142C13.8355 5.45142 17.4203 8.5298 17.4203 13.798C17.4175 14.4313 17.3667 15.0635 17.2682 15.6891ZM4.84406 12.4903H13.2586C13.1245 11.4997 12.6268 10.5949 11.8627 9.95266C11.0987 9.31047 10.1233 8.97713 9.12716 9.01775C8.11792 8.99068 7.13214 9.32549 6.34704 9.96203C5.56194 10.5986 5.029 11.4951 4.84406 12.4903Z" fill="#5454FB"/>
<path d="M18.5445 5.88001H22.7364V8.19478C23.5873 6.64134 25.4704 5.42285 27.9313 5.42285C31.2728 5.42285 34.4013 7.64664 34.4013 12.3377V22.4817H30.1182V13.4951C30.1182 10.8146 28.6905 9.38294 26.625 9.38294C24.3772 9.38294 22.8281 11.0889 22.8281 13.5865V22.4817H18.5445V5.88001Z" fill="#5454FB"/>
<path d="M48.0409 21.5069C46.5719 22.4162 44.8766 22.8914 43.1502 22.8779C39.3533 22.8779 37.3771 20.6233 37.3771 16.3283V9.47545H34.6738V5.88109H37.411V0H41.6639V5.88109H47.1314V9.47545H41.6621V16.0554C41.6621 17.9741 42.391 18.9794 43.9988 18.9794C44.9788 18.943 45.932 18.6489 46.763 18.1266L48.0409 21.5069Z" fill="#5454FB"/>
<path d="M63.9284 15.689H51.5039C52.0203 17.6996 53.5089 19.2227 56.3341 19.2227C58.2378 19.1804 60.0912 18.5995 61.6801 17.5471L63.3814 20.563C61.2641 22.0546 58.7381 22.8521 56.1503 22.846C49.9534 22.846 47.1585 18.6121 47.1585 14.1622C47.1585 9.19685 50.6219 5.44995 55.7861 5.44995C60.4944 5.44995 64.0792 8.52834 64.0792 13.7965C64.0769 14.4303 64.0265 15.0629 63.9284 15.689ZM51.5039 12.4903H59.9184C59.7842 11.4997 59.2866 10.5949 58.5228 9.95271C57.759 9.31052 56.7835 8.97714 55.7874 9.01766C54.7781 8.99051 53.7921 9.32522 53.0072 9.96176C52.2219 10.5983 51.689 11.4949 51.5039 12.4903Z" fill="#5454FB"/>
<path d="M92.2214 14.1657C92.2214 9.10884 95.8667 5.45337 101.122 5.45337C104.403 5.45337 107.44 7.06791 108.837 10.0838L105.405 11.9727C104.983 11.2179 104.371 10.5873 103.63 10.1438C102.889 9.70039 102.045 9.45963 101.183 9.44562C99.9414 9.45104 98.7515 9.94625 97.8713 10.8242C96.9911 11.7021 96.4908 12.8923 96.4789 14.1371C96.467 15.382 96.9439 16.5816 97.8071 17.4765C98.6704 18.3715 99.8497 18.8897 101.091 18.9192C101.952 18.912 102.796 18.6771 103.537 18.2383C104.279 17.7994 104.891 17.1721 105.314 16.4198L108.776 18.4607C107.379 21.1109 104.432 22.8472 101 22.8472C95.836 22.8458 92.2214 19.2225 92.2214 14.1657Z" fill="#5454FB"/>
<path d="M122.203 21.5069C120.734 22.4161 119.039 22.8913 117.313 22.8779C113.515 22.8779 111.54 20.6233 111.54 16.3283V9.47545H108.836V5.88109H111.57V0H115.823V5.88109H121.291V9.47545H115.824V16.0554C115.824 17.9741 116.553 18.9794 118.163 18.9794C119.143 18.9431 120.097 18.649 120.927 18.1266L122.203 21.5069Z" fill="#5454FB"/>
<path d="M75.4472 5.99341C75.4472 7.24544 75.4307 8.40603 75.4563 9.56617C75.4646 9.9535 75.202 9.99669 74.9624 10.1125C72.7223 11.1959 71.1315 12.8426 70.5762 15.3342C70.4356 16.0274 70.365 16.733 70.365 17.4404C70.3352 19.1092 70.3554 20.7788 70.3554 22.4821H65.8074C65.796 22.3038 65.7767 22.1333 65.7763 21.9629C65.774 20.5248 65.834 19.0834 65.7575 17.6495C65.7053 16.3091 65.9985 14.9779 66.6093 13.7845C68.3132 10.2283 70.8768 7.59371 74.6357 6.23784C74.873 6.15238 75.1186 6.09127 75.4472 5.99341Z" fill="#5454FB"/>
<path d="M65.847 12.1241C65.847 9.55941 65.8126 8.01792 65.8126 5.38843H70.29C70.3775 5.68253 70.3761 5.99602 70.2858 6.28925C70.1956 6.58247 70.0206 6.84225 69.7828 7.03559C68.0747 8.5486 66.9961 9.46844 66.1544 11.5741C66.0779 11.7653 65.9968 11.9546 65.918 12.1443L65.847 12.1241Z" fill="#5454FB"/>
<path d="M90.6298 11.3556C90.5565 8.75137 89.434 6.64842 86.9021 5.62015C83.824 4.3704 80.7166 4.61761 77.6321 5.67115C77.513 5.71204 77.3471 5.86229 77.3453 5.96429C77.3251 7.11523 77.3324 8.26664 77.3324 9.47043C77.7379 9.32386 78.0623 9.18878 78.3973 9.08862C80.3345 8.43751 82.438 8.4904 84.3404 9.23794C85.0354 9.46808 85.6155 9.95704 85.9614 10.6038C86.3073 11.2506 86.3926 12.0059 86.1992 12.7138C85.3745 12.552 84.5548 12.3264 83.7223 12.2469C82.8623 12.1641 81.9968 12.1607 81.1363 12.2368C78.4078 12.4854 75.9648 13.7921 75.858 17.227C75.7934 19.3249 76.3771 21.0865 78.3418 22.1377C80.1562 23.1077 83.5587 23.2308 85.6169 21.3976C85.7855 21.2469 85.9651 21.1086 86.2464 20.8765V22.5012H90.6055C90.6275 22.4333 90.6427 22.3634 90.6514 22.2926C90.6564 18.6468 90.732 14.9987 90.6298 11.3556ZM83.9752 19.4802C81.1344 20.1336 79.4607 19.4343 79.507 17.38C79.5533 15.3258 81.4621 14.7198 83.3236 14.9063C84.2144 14.98 85.1 15.1047 85.9765 15.2798C85.9765 15.2798 86.8145 18.8269 83.9752 19.4802Z" fill="#5454FB"/>
<path d="M126.983 22.5256C127.32 22.5261 127.653 22.4591 127.962 22.3285C128.273 22.1978 128.553 22.0063 128.788 21.7651C129.023 21.5239 129.207 21.2379 129.33 20.9241C129.453 20.6103 129.512 20.2749 129.503 19.9379C129.506 19.6037 129.444 19.2722 129.318 18.9625C129.193 18.6528 129.008 18.3709 128.774 18.1332C128.54 17.8955 128.261 17.7065 127.954 17.5771C127.646 17.4478 127.317 17.3807 126.983 17.3796C126.643 17.3716 126.306 17.4318 125.989 17.5568C125.673 17.6818 125.385 17.8691 125.142 18.1074C124.899 18.3459 124.706 18.6306 124.574 18.945C124.442 19.2594 124.375 19.5969 124.375 19.9379C124.369 20.2817 124.433 20.6232 124.562 20.9418C124.691 21.2603 124.884 21.5492 125.128 21.7911C125.371 22.033 125.661 22.2227 125.98 22.349C126.299 22.4752 126.641 22.5353 126.983 22.5256Z" fill="#5454FB"/>
<path d="M137.023 11.525C137.509 10.499 138.256 9.662 139.264 9.014C140.29 8.366 141.496 8.042 142.882 8.042C144.232 8.042 145.438 8.357 146.5 8.987C147.562 9.599 148.39 10.481 148.984 11.633C149.596 12.767 149.902 14.09 149.902 15.602C149.902 17.114 149.596 18.446 148.984 19.598C148.39 20.75 147.553 21.641 146.473 22.271C145.411 22.901 144.214 23.216 142.882 23.216C141.478 23.216 140.263 22.901 139.237 22.271C138.229 21.623 137.491 20.786 137.023 19.76V23H135.16V3.02H137.023V11.525ZM147.985 15.602C147.985 14.378 147.742 13.325 147.256 12.443C146.788 11.543 146.14 10.859 145.312 10.391C144.484 9.923 143.548 9.689 142.504 9.689C141.496 9.689 140.569 9.932 139.723 10.418C138.895 10.904 138.238 11.597 137.752 12.497C137.266 13.397 137.023 14.441 137.023 15.629C137.023 16.817 137.266 17.861 137.752 18.761C138.238 19.661 138.895 20.354 139.723 20.84C140.569 21.326 141.496 21.569 142.504 21.569C143.548 21.569 144.484 21.335 145.312 20.867C146.14 20.381 146.788 19.688 147.256 18.788C147.742 17.87 147.985 16.808 147.985 15.602ZM159.023 23.216C157.637 23.216 156.386 22.91 155.27 22.298C154.172 21.668 153.299 20.786 152.651 19.652C152.021 18.5 151.706 17.159 151.706 15.629C151.706 14.099 152.03 12.767 152.678 11.633C153.326 10.481 154.208 9.599 155.324 8.987C156.44 8.357 157.691 8.042 159.077 8.042C160.463 8.042 161.714 8.357 162.83 8.987C163.964 9.599 164.846 10.481 165.476 11.633C166.124 12.767 166.448 14.099 166.448 15.629C166.448 17.141 166.124 18.473 165.476 19.625C164.828 20.777 163.937 21.668 162.803 22.298C161.669 22.91 160.409 23.216 159.023 23.216ZM159.023 21.569C159.995 21.569 160.895 21.353 161.723 20.921C162.551 20.471 163.217 19.805 163.721 18.923C164.243 18.023 164.504 16.925 164.504 15.629C164.504 14.333 164.252 13.244 163.748 12.362C163.244 11.462 162.578 10.796 161.75 10.364C160.922 9.914 160.022 9.689 159.05 9.689C158.078 9.689 157.178 9.914 156.35 10.364C155.522 10.796 154.856 11.462 154.352 12.362C153.866 13.244 153.623 14.333 153.623 15.629C153.623 16.925 153.866 18.023 154.352 18.923C154.856 19.805 155.513 20.471 156.323 20.921C157.151 21.353 158.051 21.569 159.023 21.569ZM171.54 9.851V19.004C171.54 19.904 171.711 20.525 172.053 20.867C172.395 21.209 172.998 21.38 173.862 21.38H175.59V23H173.565C172.233 23 171.243 22.694 170.595 22.082C169.947 21.452 169.623 20.426 169.623 19.004V9.851H167.571V8.258H169.623V4.559H171.54V8.258H175.59V9.851H171.54Z" fill="#98999B"/>
</svg>
