<svg width="48" height="48" viewBox="0 0 48 48" fill="none" xmlns="http://www.w3.org/2000/svg"><g clip-path="url(#clip0_118_5)"><path d="M34.366 17.407c-4.879-2.73-12.71-7.111-24.856-13.913a2.929 2.929 0 00-2.576-.336l20.84 20.84 6.592-6.591z" fill="#32BBFF"/><path d="M6.934 3.158a2.996 2.996 0 00-.443.19c-.899.486-1.56 1.422-1.56 2.605v36.09a2.93 2.93 0 002.003 2.796l20.84-20.84-20.84-20.84z" fill="#32BBFF"/><path d="M27.774 23.998L6.934 44.84a2.898 2.898 0 002.576-.337c11.78-6.596 19.522-10.926 24.457-13.678l.405-.227-6.598-6.599z" fill="#32BBFF"/><path d="M4.932 23.998v18.046a2.93 2.93 0 002.002 2.795l20.84-20.84H4.932z" fill="#2C9FD9"/><path d="M9.51 3.494a2.938 2.938 0 00-3.019-.146l20.967 20.967 6.908-6.908c-4.879-2.73-12.71-7.111-24.856-13.913z" fill="#29CC5E"/><path d="M27.458 23.682L6.491 44.65c.9.477 2.046.505 3.019-.147 11.78-6.596 19.522-10.926 24.457-13.678l.406-.228-6.915-6.914z" fill="#D93F21"/><path d="M43.068 23.998c0-1-.504-2.009-1.504-2.568 0 0-1.87-1.044-7.603-4.25l-6.819 6.818 6.825 6.826c5.67-3.184 7.596-4.257 7.596-4.257 1-.56 1.505-1.569 1.505-2.569z" fill="#FFD500"/><path d="M41.564 26.567c1-.56 1.504-1.569 1.504-2.569H27.142l6.825 6.826c5.67-3.183 7.597-4.257 7.597-4.257z" fill="#FA0"/></g><defs><clipPath id="clip0_118_5"><path fill="#fff" transform="translate(3 3)" d="M0 0h42v42H0z"/></clipPath></defs></svg>