<svg width="48" height="48" viewBox="0 0 48 48" fill="none" xmlns="http://www.w3.org/2000/svg"><path d="M42 3c1.594 0 3 1.406 3 3.094V42c0 1.688-1.406 3-3 3H5.906C4.313 45 3 43.687 3 42V6.094C3 4.406 4.313 3 5.906 3H42zM15.656 39V19.031H9.47V39h6.187zm-3.094-22.781a3.561 3.561 0 003.563-3.563c0-1.969-1.594-3.656-3.563-3.656-2.062 0-3.656 1.688-3.656 3.656 0 1.969 1.594 3.563 3.656 3.563zM39 39V28.031c0-5.343-1.219-9.562-7.5-9.562-3 0-5.063 1.687-5.906 3.281H25.5v-2.719h-5.906V39h6.187v-9.844c0-2.625.469-5.156 3.75-5.156 3.188 0 3.188 3 3.188 5.25V39H39z" fill="#0A66C2"/></svg>