<svg width="35" height="25" viewBox="0 0 35 25" fill="none" xmlns="http://www.w3.org/2000/svg">
<g clip-path="url(#clip0_2749_43696)">
<mask id="mask0_2749_43696" style="mask-type:luminance" maskUnits="userSpaceOnUse" x="0" y="0" width="35" height="25">
<path d="M35 0H0V25H35V0Z" fill="white"/>
</mask>
<g mask="url(#mask0_2749_43696)">
<path d="M18.8459 19.907C18.7152 20.0433 18.5584 20.1517 18.3847 20.2258C18.2111 20.2999 18.0242 20.338 17.8354 20.338C17.6466 20.338 17.4598 20.2999 17.2861 20.2258C17.1125 20.1517 16.9556 20.0433 16.8249 19.907C16.559 19.622 16.4111 19.2468 16.4111 18.857C16.4111 18.4672 16.559 18.092 16.8249 17.807C16.9556 17.6707 17.1125 17.5623 17.2861 17.4882C17.4598 17.4142 17.6466 17.376 17.8354 17.376C18.0242 17.376 18.2111 17.4142 18.3847 17.4882C18.5584 17.5623 18.7152 17.6707 18.8459 17.807C19.1118 18.092 19.2597 18.4672 19.2597 18.857C19.2597 19.2468 19.1118 19.622 18.8459 19.907Z" fill="#5454FB"/>
<path d="M14.7172 15.1441H3.81721C4.02871 16.0861 4.57535 16.9192 5.35536 17.4882C6.13537 18.0572 7.09558 18.3234 8.05721 18.2371C9.72833 18.1998 11.355 17.6917 12.7502 16.7711L14.2432 19.4111C12.3851 20.7169 10.1683 21.4155 7.89721 21.4111C2.45721 21.4111 0.00421259 17.7051 0.00421259 13.8111C-0.0404198 12.8022 0.1245 11.7951 0.488569 10.8531C0.852638 9.91114 1.40795 9.05484 2.1195 8.33823C2.83104 7.62161 3.68336 7.06023 4.62271 6.68947C5.56205 6.31872 6.56804 6.14665 7.57721 6.18411C8.55033 6.12721 9.52446 6.27742 10.4353 6.62481C11.346 6.97221 12.1728 7.50888 12.8608 8.19938C13.5489 8.88989 14.0826 9.71851 14.4267 10.6305C14.7709 11.5425 14.9176 12.5172 14.8572 13.4901C14.8526 14.0442 14.8058 14.5971 14.7172 15.1441ZM3.81121 12.3441H11.1982C11.0802 11.4771 10.6432 10.6852 9.97243 10.1232C9.30171 9.56118 8.44553 9.26949 7.57121 9.30511C6.68636 9.28273 5.82249 9.57633 5.13453 10.1333C4.44657 10.6902 3.97954 11.474 3.81721 12.3441H3.81121Z" fill="#5454FB"/>
<path d="M22.6505 10.0875C23.0915 9.1565 23.7693 8.397 24.684 7.809C25.615 7.221 26.7093 6.927 27.967 6.927C29.192 6.927 30.2863 7.21283 31.25 7.7845C32.2137 8.33983 32.965 9.14017 33.504 10.1855C34.0593 11.2145 34.337 12.415 34.337 13.787C34.337 15.159 34.0593 16.3677 33.504 17.413C32.965 18.4583 32.2055 19.2668 31.2255 19.8385C30.2618 20.4102 29.1757 20.696 27.967 20.696C26.693 20.696 25.5905 20.4102 24.6595 19.8385C23.7448 19.2505 23.0752 18.491 22.6505 17.56V20.5H20.96V2.37H22.6505V10.0875ZM32.5975 13.787C32.5975 12.6763 32.377 11.7208 31.936 10.9205C31.5113 10.1038 30.9233 9.48317 30.172 9.0585C29.4207 8.63383 28.5713 8.4215 27.624 8.4215C26.7093 8.4215 25.8682 8.642 25.1005 9.083C24.3492 9.524 23.753 10.1528 23.312 10.9695C22.871 11.7862 22.6505 12.7335 22.6505 13.8115C22.6505 14.8895 22.871 15.8368 23.312 16.6535C23.753 17.4702 24.3492 18.099 25.1005 18.54C25.8682 18.981 26.7093 19.2015 27.624 19.2015C28.5713 19.2015 29.4207 18.9892 30.172 18.5645C30.9233 18.1235 31.5113 17.4947 31.936 16.678C32.377 15.845 32.5975 14.8813 32.5975 13.787Z" fill="#5454FB"/>
</g>
</g>
<defs>
<clipPath id="clip0_2749_43696">
<rect width="35" height="25" fill="white"/>
</clipPath>
</defs>
</svg>
