<svg width="46" height="20" viewBox="0 0 46 20" fill="none" xmlns="http://www.w3.org/2000/svg">
<rect x="0.5" y="0.5" width="45" height="19" rx="9.5" fill="white" fill-opacity="0.6"/>
<rect x="0.5" y="0.5" width="45" height="19" rx="9.5" stroke="#F4B2BD"/>
<path d="M12 15.875C10.0234 15.875 8.21875 14.8438 7.23047 13.125C6.24219 11.4277 6.24219 9.34375 7.23047 7.625C8.21875 5.92773 10.0234 4.875 12 4.875C13.9551 4.875 15.7598 5.92773 16.748 7.625C17.7363 9.34375 17.7363 11.4277 16.748 13.125C15.7598 14.8438 13.9551 15.875 12 15.875ZM9.91602 13.2324C10.1738 12.3945 10.9902 11.75 12 11.75C12.9883 11.75 13.8047 12.3945 14.0625 13.2324C14.127 13.4258 14.3203 13.5117 14.4922 13.4688C14.6855 13.4043 14.7715 13.2109 14.7285 13.0391C14.3633 11.9004 13.2676 11.0625 12 11.0625C10.7109 11.0625 9.61523 11.9004 9.25 13.0391C9.20703 13.2109 9.29297 13.4043 9.48633 13.4688C9.6582 13.5117 9.85156 13.4258 9.91602 13.2324ZM9.59375 9.34375C9.59375 9.73047 9.89453 10.0312 10.2812 10.0312C10.668 10.0312 10.9688 9.73047 10.9688 9.34375C10.9688 8.97852 10.668 8.65625 10.2812 8.65625C9.89453 8.65625 9.59375 8.97852 9.59375 9.34375ZM13.7188 8.65625C13.332 8.65625 13.0312 8.97852 13.0312 9.34375C13.0312 9.73047 13.332 10.0312 13.7188 10.0312C14.1055 10.0312 14.4062 9.73047 14.4062 9.34375C14.4062 8.97852 14.1055 8.65625 13.7188 8.65625Z" fill="#DC3545"/>
<path d="M23.1368 10.42C23.0701 10.42 23.0135 10.4 22.9668 10.36C22.9268 10.3133 22.9068 10.2567 22.9068 10.19V9.81C22.9068 9.74333 22.9268 9.69 22.9668 9.65C23.0135 9.60333 23.0701 9.58 23.1368 9.58H26.1368C26.2101 9.58 26.2668 9.60333 26.3068 9.65C26.3468 9.69 26.3668 9.74333 26.3668 9.81V10.19C26.3668 10.2567 26.3468 10.3133 26.3068 10.36C26.2668 10.4 26.2101 10.42 26.1368 10.42H23.1368ZM29.3859 13C29.2859 13 29.2059 12.9767 29.1459 12.93C29.0926 12.8833 29.0493 12.8233 29.0159 12.75L27.1659 8.11C27.1526 8.07667 27.1459 8.04333 27.1459 8.01C27.1459 7.95 27.1659 7.9 27.2059 7.86C27.2459 7.82 27.2959 7.8 27.3559 7.8H27.8359C27.9093 7.8 27.9659 7.82 28.0059 7.86C28.0459 7.9 28.0726 7.93667 28.0859 7.97L29.6059 11.91L31.1259 7.97C31.1393 7.93667 31.1626 7.9 31.1959 7.86C31.2359 7.82 31.2926 7.8 31.3659 7.8H31.8559C31.9093 7.8 31.9559 7.82 31.9959 7.86C32.0426 7.9 32.0659 7.95 32.0659 8.01C32.0659 8.04333 32.0593 8.07667 32.0459 8.11L30.1859 12.75C30.1593 12.8233 30.1159 12.8833 30.0559 12.93C30.0026 12.9767 29.9226 13 29.8159 13H29.3859ZM35.0075 13.1C34.3142 13.1 33.7642 12.89 33.3575 12.47C32.9508 12.0433 32.7275 11.4633 32.6875 10.73C32.6808 10.6433 32.6775 10.5333 32.6775 10.4C32.6775 10.26 32.6808 10.1467 32.6875 10.06C32.7142 9.58667 32.8242 9.17333 33.0175 8.82C33.2108 8.46 33.4742 8.18333 33.8075 7.99C34.1475 7.79667 34.5442 7.7 34.9975 7.7C35.5042 7.7 35.9275 7.80667 36.2675 8.02C36.6142 8.23333 36.8775 8.53667 37.0575 8.93C37.2375 9.32333 37.3275 9.78333 37.3275 10.31V10.48C37.3275 10.5533 37.3042 10.61 37.2575 10.65C37.2175 10.69 37.1642 10.71 37.0975 10.71H33.6375C33.6375 10.7167 33.6375 10.73 33.6375 10.75C33.6375 10.77 33.6375 10.7867 33.6375 10.8C33.6508 11.0733 33.7108 11.33 33.8175 11.57C33.9242 11.8033 34.0775 11.9933 34.2775 12.14C34.4842 12.2867 34.7242 12.36 34.9975 12.36C35.2375 12.36 35.4375 12.3233 35.5975 12.25C35.7575 12.1767 35.8875 12.0967 35.9875 12.01C36.0875 11.9167 36.1542 11.8433 36.1875 11.79C36.2475 11.71 36.2942 11.6633 36.3275 11.65C36.3608 11.63 36.4142 11.62 36.4875 11.62H36.9775C37.0375 11.62 37.0875 11.64 37.1275 11.68C37.1742 11.7133 37.1942 11.7633 37.1875 11.83C37.1808 11.93 37.1275 12.0533 37.0275 12.2C36.9275 12.34 36.7842 12.48 36.5975 12.62C36.4175 12.76 36.1908 12.8767 35.9175 12.97C35.6508 13.0567 35.3475 13.1 35.0075 13.1ZM33.6375 10.02H36.3775V9.99C36.3775 9.69 36.3208 9.42333 36.2075 9.19C36.1008 8.95667 35.9442 8.77333 35.7375 8.64C35.5308 8.5 35.2842 8.43 34.9975 8.43C34.7108 8.43 34.4642 8.5 34.2575 8.64C34.0575 8.77333 33.9042 8.95667 33.7975 9.19C33.6908 9.42333 33.6375 9.69 33.6375 9.99V10.02Z" fill="#DC3545"/>
</svg>
