<svg width="64" height="20" viewBox="0 0 64 20" fill="none" xmlns="http://www.w3.org/2000/svg">
<rect x="0.5" y="0.5" width="63" height="19" rx="9.5" fill="white" fill-opacity="0.6"/>
<rect x="0.5" y="0.5" width="63" height="19" rx="9.5" stroke="#FFC086"/>
<path d="M6.5 10.375C6.5 7.3457 8.94922 4.875 12 4.875C15.0293 4.875 17.5 7.3457 17.5 10.375C17.5 13.4258 15.0293 15.875 12 15.875C8.94922 15.875 6.5 13.4258 6.5 10.375ZM10.0234 11.8789C9.89453 11.7285 9.67969 11.7285 9.5293 11.8359C9.37891 11.9648 9.37891 12.1797 9.48633 12.3301C9.98047 12.8887 10.7969 13.4688 11.9785 13.4688C13.1816 13.4688 13.998 12.8887 14.4922 12.3301C14.5996 12.1797 14.5996 11.9648 14.4492 11.8359C14.2988 11.7285 14.084 11.7285 13.9551 11.8789C13.5684 12.3301 12.9238 12.7812 11.9785 12.7812C11.0547 12.7812 10.4102 12.3301 10.0234 11.8789ZM10.2812 8.65625C9.89453 8.65625 9.59375 8.97852 9.59375 9.34375C9.59375 9.73047 9.89453 10.0312 10.2812 10.0312C10.668 10.0312 10.9688 9.73047 10.9688 9.34375C10.9688 8.97852 10.668 8.65625 10.2812 8.65625ZM13.7188 10.0312C14.1055 10.0312 14.4062 9.73047 14.4062 9.34375C14.4062 8.97852 14.1055 8.65625 13.7188 8.65625C13.332 8.65625 13.0312 8.97852 13.0312 9.34375C13.0312 9.73047 13.332 10.0312 13.7188 10.0312Z" fill="#FFB067"/>
<path d="M23.1078 13C23.0411 13 22.9878 12.98 22.9478 12.94C22.9078 12.8933 22.8878 12.8367 22.8878 12.77V6.24C22.8878 6.16667 22.9078 6.11 22.9478 6.07C22.9878 6.02333 23.0411 6 23.1078 6H23.5478C23.6145 6 23.6645 6.01333 23.6978 6.04C23.7311 6.06667 23.7645 6.1 23.7978 6.14L27.1478 11.3V6.24C27.1478 6.16667 27.1678 6.11 27.2078 6.07C27.2545 6.02333 27.3111 6 27.3778 6H27.8278C27.9011 6 27.9578 6.02333 27.9978 6.07C28.0445 6.11 28.0678 6.16667 28.0678 6.24V12.76C28.0678 12.8267 28.0445 12.8833 27.9978 12.93C27.9578 12.9767 27.9045 13 27.8378 13H27.3878C27.2745 13 27.1945 12.9533 27.1478 12.86L23.7978 7.75V12.77C23.7978 12.8367 23.7745 12.8933 23.7278 12.94C23.6878 12.98 23.6345 13 23.5678 13H23.1078ZM31.7514 13.1C31.0714 13.1 30.5281 12.89 30.1214 12.47C29.7147 12.0433 29.4914 11.4633 29.4514 10.73L29.4414 10.39L29.4514 10.06C29.4914 9.34 29.7147 8.76667 30.1214 8.34C30.5281 7.91333 31.0714 7.7 31.7514 7.7C32.4847 7.7 33.0514 7.93333 33.4514 8.4C33.8581 8.86667 34.0614 9.5 34.0614 10.3V10.48C34.0614 10.5467 34.0381 10.6033 33.9914 10.65C33.9514 10.69 33.8981 10.71 33.8314 10.71H30.3614V10.8C30.3814 11.2333 30.5147 11.6033 30.7614 11.91C31.0081 12.2167 31.3347 12.37 31.7414 12.37C32.0547 12.37 32.3081 12.31 32.5014 12.19C32.7014 12.0633 32.8514 11.9333 32.9514 11.8C33.0114 11.72 33.0581 11.6733 33.0914 11.66C33.1247 11.64 33.1814 11.63 33.2614 11.63H33.7014C33.7614 11.63 33.8114 11.6467 33.8514 11.68C33.8981 11.7133 33.9214 11.7567 33.9214 11.81C33.9214 11.9567 33.8314 12.1333 33.6514 12.34C33.4714 12.5467 33.2147 12.7267 32.8814 12.88C32.5547 13.0267 32.1781 13.1 31.7514 13.1ZM33.1514 10.03V10C33.1514 9.53333 33.0247 9.15333 32.7714 8.86C32.5181 8.56667 32.1781 8.42 31.7514 8.42C31.3181 8.42 30.9781 8.56667 30.7314 8.86C30.4847 9.15333 30.3614 9.53333 30.3614 10V10.03H33.1514ZM37.2173 13.1C36.584 13.1 36.094 12.8967 35.7473 12.49C35.4007 12.0767 35.2273 11.53 35.2273 10.85V8.03C35.2273 7.96333 35.2473 7.91 35.2873 7.87C35.334 7.82333 35.3907 7.8 35.4573 7.8H35.9173C35.984 7.8 36.0373 7.82333 36.0773 7.87C36.124 7.91 36.1473 7.96333 36.1473 8.03V10.8C36.1473 11.8133 36.5873 12.32 37.4673 12.32C37.894 12.32 38.2307 12.1867 38.4773 11.92C38.7307 11.6467 38.8573 11.2733 38.8573 10.8V8.03C38.8573 7.96333 38.8773 7.91 38.9173 7.87C38.964 7.82333 39.0207 7.8 39.0873 7.8H39.5473C39.614 7.8 39.6673 7.82333 39.7073 7.87C39.754 7.91 39.7773 7.96333 39.7773 8.03V12.77C39.7773 12.8367 39.754 12.8933 39.7073 12.94C39.6673 12.98 39.614 13 39.5473 13H39.1173C39.0507 13 38.994 12.98 38.9473 12.94C38.9073 12.8933 38.8873 12.8367 38.8873 12.77V12.32C38.694 12.58 38.4673 12.7767 38.2073 12.91C37.9473 13.0367 37.6173 13.1 37.2173 13.1ZM43.2734 13C42.2401 13 41.7234 12.4167 41.7234 11.25V8.57H40.9334C40.8668 8.57 40.8134 8.55 40.7734 8.51C40.7334 8.47 40.7134 8.41667 40.7134 8.35V8.03C40.7134 7.96333 40.7334 7.91 40.7734 7.87C40.8134 7.82333 40.8668 7.8 40.9334 7.8H41.7234V6.13C41.7234 6.06333 41.7434 6.01 41.7834 5.97C41.8234 5.92333 41.8768 5.9 41.9434 5.9H42.3834C42.4501 5.9 42.5034 5.92333 42.5434 5.97C42.5901 6.01 42.6134 6.06333 42.6134 6.13V7.8H43.8534C43.9201 7.8 43.9734 7.82333 44.0134 7.87C44.0601 7.91 44.0834 7.96333 44.0834 8.03V8.35C44.0834 8.41667 44.0601 8.47 44.0134 8.51C43.9734 8.55 43.9201 8.57 43.8534 8.57H42.6134V11.18C42.6134 11.52 42.6668 11.7767 42.7734 11.95C42.8868 12.1233 43.0768 12.21 43.3434 12.21H43.9534C44.0201 12.21 44.0734 12.2333 44.1134 12.28C44.1534 12.32 44.1734 12.3733 44.1734 12.44V12.77C44.1734 12.8367 44.1534 12.8933 44.1134 12.94C44.0734 12.98 44.0201 13 43.9534 13H43.2734ZM45.3804 13C45.3137 13 45.2571 12.98 45.2104 12.94C45.1704 12.8933 45.1504 12.8367 45.1504 12.77V8.04C45.1504 7.97333 45.1704 7.91667 45.2104 7.87C45.2571 7.82333 45.3137 7.8 45.3804 7.8H45.8004C45.8737 7.8 45.9304 7.82333 45.9704 7.87C46.0171 7.91 46.0404 7.96667 46.0404 8.04V8.48C46.3137 8.02667 46.7771 7.8 47.4304 7.8H47.8204C47.8937 7.8 47.9504 7.82 47.9904 7.86C48.0304 7.9 48.0504 7.95667 48.0504 8.03V8.4C48.0504 8.46667 48.0304 8.52333 47.9904 8.57C47.9504 8.61 47.8937 8.63 47.8204 8.63H47.2504C46.8837 8.63 46.5937 8.73667 46.3804 8.95C46.1737 9.16333 46.0704 9.45333 46.0704 9.82V12.77C46.0704 12.8367 46.0471 12.8933 46.0004 12.94C45.9537 12.98 45.8971 13 45.8304 13H45.3804ZM50.272 13.1C49.9454 13.1 49.642 13.0333 49.362 12.9C49.0887 12.7667 48.8687 12.5867 48.702 12.36C48.542 12.1267 48.462 11.87 48.462 11.59C48.462 11.15 48.642 10.79 49.002 10.51C49.362 10.23 49.852 10.0433 50.472 9.95L51.972 9.74V9.45C51.972 8.76333 51.5754 8.42 50.782 8.42C50.4754 8.42 50.2287 8.48333 50.042 8.61C49.8554 8.73 49.7187 8.87333 49.632 9.04C49.6054 9.10667 49.5754 9.15333 49.542 9.18C49.5154 9.2 49.4754 9.21 49.422 9.21H49.032C48.972 9.21 48.9187 9.19 48.872 9.15C48.832 9.10333 48.812 9.05 48.812 8.99C48.812 8.83667 48.882 8.66 49.022 8.46C49.1687 8.25333 49.392 8.07667 49.692 7.93C49.992 7.77667 50.3587 7.7 50.792 7.7C51.5387 7.7 52.072 7.87333 52.392 8.22C52.7187 8.56667 52.882 9 52.882 9.52V12.77C52.882 12.8367 52.8587 12.8933 52.812 12.94C52.772 12.98 52.7187 13 52.652 13H52.212C52.1454 13 52.092 12.98 52.052 12.94C52.012 12.8933 51.992 12.8367 51.992 12.77V12.33C51.8454 12.55 51.632 12.7333 51.352 12.88C51.072 13.0267 50.712 13.1 50.272 13.1ZM50.472 12.37C50.912 12.37 51.272 12.2267 51.552 11.94C51.832 11.6533 51.972 11.2367 51.972 10.69V10.41L50.802 10.58C50.322 10.6467 49.9587 10.76 49.712 10.92C49.4654 11.08 49.342 11.28 49.342 11.52C49.342 11.7933 49.452 12.0033 49.672 12.15C49.8987 12.2967 50.1654 12.37 50.472 12.37ZM54.5701 13C54.5034 13 54.4467 12.98 54.4001 12.94C54.3601 12.8933 54.3401 12.8367 54.3401 12.77V6.13C54.3401 6.05667 54.3601 6 54.4001 5.96C54.4467 5.92 54.5034 5.9 54.5701 5.9H55.0101C55.0767 5.9 55.1301 5.92333 55.1701 5.97C55.2167 6.01 55.2401 6.06333 55.2401 6.13V12.77C55.2401 12.8367 55.2167 12.8933 55.1701 12.94C55.1301 12.98 55.0767 13 55.0101 13H54.5701Z" fill="#F09B4D"/>
</svg>
