<svg width="46" height="20" viewBox="0 0 46 20" fill="none" xmlns="http://www.w3.org/2000/svg">
<rect x="0.5" y="0.5" width="45" height="19" rx="9.5" fill="white" fill-opacity="0.6"/>
<rect x="0.5" y="0.5" width="45" height="19" rx="9.5" stroke="#A1E3C2"/>
<path d="M12 15.875C10.0234 15.875 8.21875 14.8438 7.23047 13.125C6.24219 11.4277 6.24219 9.34375 7.23047 7.625C8.21875 5.92773 10.0234 4.875 12 4.875C13.9551 4.875 15.7598 5.92773 16.748 7.625C17.7363 9.34375 17.7363 11.4277 16.748 13.125C15.7598 14.8438 13.9551 15.875 12 15.875ZM10.0234 11.8789C9.89453 11.7285 9.67969 11.7285 9.5293 11.8359C9.37891 11.9648 9.37891 12.1797 9.48633 12.3301C9.98047 12.8887 10.7969 13.4688 12 13.4688C13.1816 13.4688 13.998 12.8887 14.4922 12.3301C14.5996 12.1797 14.5996 11.9648 14.4492 11.8359C14.2988 11.7285 14.084 11.7285 13.9551 11.8789C13.5898 12.3301 12.9238 12.7812 12 12.7812C11.0547 12.7812 10.4102 12.3301 10.0234 11.8789ZM9.59375 9.34375C9.59375 9.73047 9.89453 10.0312 10.2812 10.0312C10.668 10.0312 10.9688 9.73047 10.9688 9.34375C10.9688 8.97852 10.668 8.65625 10.2812 8.65625C9.89453 8.65625 9.59375 8.97852 9.59375 9.34375ZM13.7188 8.65625C13.332 8.65625 13.0312 8.97852 13.0312 9.34375C13.0312 9.73047 13.332 10.0312 13.7188 10.0312C14.1055 10.0312 14.4062 9.73047 14.4062 9.34375C14.4062 8.97852 14.1055 8.65625 13.7188 8.65625Z" fill="#3CC480"/>
<path d="M25.346 12.67C25.2793 12.67 25.2227 12.65 25.176 12.61C25.136 12.5633 25.116 12.5067 25.116 12.44V10.36H23.066C22.9993 10.36 22.9427 10.34 22.896 10.3C22.856 10.2533 22.836 10.1967 22.836 10.13V9.81C22.836 9.74333 22.856 9.69 22.896 9.65C22.9427 9.60333 22.9993 9.58 23.066 9.58H25.116V7.56C25.116 7.49333 25.136 7.44 25.176 7.4C25.2227 7.35333 25.2793 7.33 25.346 7.33H25.696C25.7627 7.33 25.816 7.35333 25.856 7.4C25.9027 7.44 25.926 7.49333 25.926 7.56V9.58H27.986C28.0527 9.58 28.106 9.60333 28.146 9.65C28.1927 9.69 28.216 9.74333 28.216 9.81V10.13C28.216 10.1967 28.1927 10.2533 28.146 10.3C28.106 10.34 28.0527 10.36 27.986 10.36H25.926V12.44C25.926 12.5067 25.9027 12.5633 25.856 12.61C25.816 12.65 25.7627 12.67 25.696 12.67H25.346ZM31.1867 13C31.0867 13 31.0067 12.9767 30.9467 12.93C30.8934 12.8833 30.8501 12.8233 30.8167 12.75L28.9667 8.11C28.9534 8.07667 28.9467 8.04333 28.9467 8.01C28.9467 7.95 28.9667 7.9 29.0067 7.86C29.0467 7.82 29.0967 7.8 29.1567 7.8H29.6367C29.7101 7.8 29.7667 7.82 29.8067 7.86C29.8467 7.9 29.8734 7.93667 29.8867 7.97L31.4067 11.91L32.9267 7.97C32.9401 7.93667 32.9634 7.9 32.9967 7.86C33.0367 7.82 33.0934 7.8 33.1667 7.8H33.6567C33.7101 7.8 33.7567 7.82 33.7967 7.86C33.8434 7.9 33.8667 7.95 33.8667 8.01C33.8667 8.04333 33.8601 8.07667 33.8467 8.11L31.9867 12.75C31.9601 12.8233 31.9167 12.8833 31.8567 12.93C31.8034 12.9767 31.7234 13 31.6167 13H31.1867ZM36.8083 13.1C36.1149 13.1 35.5649 12.89 35.1583 12.47C34.7516 12.0433 34.5283 11.4633 34.4883 10.73C34.4816 10.6433 34.4783 10.5333 34.4783 10.4C34.4783 10.26 34.4816 10.1467 34.4883 10.06C34.5149 9.58667 34.6249 9.17333 34.8183 8.82C35.0116 8.46 35.2749 8.18333 35.6083 7.99C35.9483 7.79667 36.3449 7.7 36.7983 7.7C37.3049 7.7 37.7283 7.80667 38.0683 8.02C38.4149 8.23333 38.6783 8.53667 38.8583 8.93C39.0383 9.32333 39.1283 9.78333 39.1283 10.31V10.48C39.1283 10.5533 39.1049 10.61 39.0583 10.65C39.0183 10.69 38.9649 10.71 38.8983 10.71H35.4383C35.4383 10.7167 35.4383 10.73 35.4383 10.75C35.4383 10.77 35.4383 10.7867 35.4383 10.8C35.4516 11.0733 35.5116 11.33 35.6183 11.57C35.7249 11.8033 35.8783 11.9933 36.0783 12.14C36.2849 12.2867 36.5249 12.36 36.7983 12.36C37.0383 12.36 37.2383 12.3233 37.3983 12.25C37.5583 12.1767 37.6883 12.0967 37.7883 12.01C37.8883 11.9167 37.9549 11.8433 37.9883 11.79C38.0483 11.71 38.0949 11.6633 38.1283 11.65C38.1616 11.63 38.2149 11.62 38.2883 11.62H38.7783C38.8383 11.62 38.8883 11.64 38.9283 11.68C38.9749 11.7133 38.9949 11.7633 38.9883 11.83C38.9816 11.93 38.9283 12.0533 38.8283 12.2C38.7283 12.34 38.5849 12.48 38.3983 12.62C38.2183 12.76 37.9916 12.8767 37.7183 12.97C37.4516 13.0567 37.1483 13.1 36.8083 13.1ZM35.4383 10.02H38.1783V9.99C38.1783 9.69 38.1216 9.42333 38.0083 9.19C37.9016 8.95667 37.7449 8.77333 37.5383 8.64C37.3316 8.5 37.0849 8.43 36.7983 8.43C36.5116 8.43 36.2649 8.5 36.0583 8.64C35.8583 8.77333 35.7049 8.95667 35.5983 9.19C35.4916 9.42333 35.4383 9.69 35.4383 9.99V10.02Z" fill="#3CC480"/>
</svg>
