<svg width="56" height="58" viewBox="0 0 56 58" fill="none" xmlns="http://www.w3.org/2000/svg"><path fill-rule="evenodd" clip-rule="evenodd" d="M42.88 14.103C38.933 10.17 33.682 8.002 28.088 8 16.561 8 7.18 17.335 7.175 28.81a20.69 20.69 0 002.792 10.405L7 50l11.086-2.894a20.965 20.965 0 009.993 2.533h.01c11.525 0 20.907-9.337 20.911-20.812.002-5.56-2.17-10.789-6.12-14.723zM28.088 46.124h-.007c-3.118 0-6.177-.835-8.847-2.41l-.635-.376-6.578 1.717 1.755-6.383-.413-.655a17.19 17.19 0 01-2.657-9.206c.004-9.537 7.801-17.296 17.39-17.296a17.306 17.306 0 0112.288 5.073 17.15 17.15 0 015.085 12.237c-.004 9.538-7.8 17.298-17.38 17.298v.001zm9.534-12.955c-.522-.26-3.091-1.518-3.57-1.691-.48-.174-.828-.26-1.176.26-.348.521-1.35 1.693-1.654 2.039-.305.347-.61.39-1.132.13-.523-.26-2.206-.81-4.203-2.58-1.553-1.38-2.602-3.082-2.907-3.603-.304-.521-.032-.803.229-1.061.235-.234.522-.608.784-.911.262-.304.348-.521.523-.867.174-.348.087-.65-.043-.912-.131-.26-1.176-2.82-1.612-3.86-.424-1.014-.855-.877-1.175-.893a21.172 21.172 0 00-1.002-.018c-.349 0-.914.13-1.394.65-.479.521-1.829 1.78-1.829 4.338 0 2.559 1.873 5.033 2.134 5.38.262.347 3.685 5.6 8.926 7.852 1.247.536 2.22.857 2.98 1.096 1.25.396 2.39.34 3.29.207 1.004-.15 3.092-1.259 3.527-2.473.435-1.215.435-2.257.305-2.473-.13-.217-.48-.347-1.002-.608l.001-.002z" fill="#25D366"/></svg>