<svg width="48" height="48" viewBox="0 0 48 48" fill="none" xmlns="http://www.w3.org/2000/svg"><path fill-rule="evenodd" clip-rule="evenodd" d="M19.663 29.76V17.283l11.347 6.26-11.347 6.219zM44.58 15.12s-.41-3.06-1.67-4.408c-1.597-1.77-3.387-1.778-4.207-1.881-5.878-.45-14.694-.45-14.694-.45h-.018s-8.816 0-14.694.45c-.821.103-2.61.111-4.209 1.88C3.83 12.06 3.42 15.12 3.42 15.12S3 18.714 3 22.308v3.37c0 3.594.42 7.187.42 7.187s.41 3.06 1.668 4.408c1.599 1.77 3.697 1.714 4.632 1.899 3.36.341 14.28.447 14.28.447s8.825-.014 14.703-.464c.82-.104 2.61-.112 4.207-1.882 1.26-1.347 1.67-4.408 1.67-4.408s.42-3.593.42-7.188v-3.37c0-3.593-.42-7.187-.42-7.187z" fill="#CE1312"/></svg>